<?xml version="1.0" encoding="utf-8"?>
<!-- Generator: Adobe Illustrator 24.1.2, SVG Export Plug-In . SVG Version: 6.00 Build 0)  -->
<svg version="1.1" id="Calque_1" xmlns="http://www.w3.org/2000/svg" xmlns:xlink="http://www.w3.org/1999/xlink" x="0px" y="0px"
	 viewBox="0 0 320 320" style="enable-background:new 0 0 320 320;" xml:space="preserve">
<style type="text/css">
	.st0{fill:#29ABE2;}
	.st1{fill:#FF7BAC;}
	.st2{fill:#FFFF00;}
</style>
<g>
	<g>
		<g>
			<path class="st0" d="M76.24,146.78l0-26.68c0-2.89-2.34-5.23-5.23-5.23l-26.68,0c-2.89,0-5.23,2.34-5.23,5.23l0,26.68
				c0,2.89,2.34,5.23,5.23,5.23h26.68C73.9,152.01,76.24,149.67,76.24,146.78z"/>
		</g>
		<g>
			<path class="st1" d="M76.24,187.59l0-26.68c0-2.89-2.34-5.23-5.23-5.23l-26.68,0c-2.89,0-5.23,2.34-5.23,5.23l0,26.68
				c0,2.89,2.34,5.23,5.23,5.23l26.68,0C73.9,192.82,76.24,190.48,76.24,187.59z"/>
		</g>
		<g>
			<path class="st2" d="M116,188.11l0-68.54c0-2.89-2.34-5.23-5.23-5.23l-26.68,0c-2.89,0-5.23,2.34-5.23,5.23l0,68.54
				c0,2.89,2.34,5.23,5.23,5.23l26.68,0C113.66,193.35,116,191,116,188.11z"/>
		</g>
	</g>
	<g>
		<g>
			<path class="st0" d="M127.73,148.9v-3.13h11.81v3.13H127.73z M135.98,164.92c-1.82,0-3.17-0.42-4.03-1.26
				c-0.86-0.84-1.3-2.15-1.3-3.92v-18.47h3.82v18.18c0,0.89,0.19,1.5,0.58,1.84c0.38,0.34,0.97,0.5,1.76,0.5h2.74v3.13H135.98z"/>
			<path class="st0" d="M143.32,142.99v-3.82h3.96v3.82H143.32z M143.39,164.92v-19.15h3.82v19.15H143.39z"/>
			<path class="st0" d="M152.61,164.92v-19.15h3.49l0.14,5.11l-0.47-0.25c0.22-1.25,0.62-2.26,1.22-3.02
				c0.6-0.77,1.33-1.34,2.2-1.71c0.86-0.37,1.8-0.56,2.81-0.56c1.44,0,2.63,0.32,3.58,0.95c0.95,0.64,1.67,1.5,2.16,2.59
				c0.49,1.09,0.74,2.33,0.74,3.73v12.31h-3.82v-11.16c0-1.13-0.12-2.08-0.36-2.84s-0.64-1.36-1.19-1.76
				c-0.55-0.41-1.27-0.61-2.16-0.61c-1.34,0-2.44,0.44-3.28,1.33c-0.84,0.89-1.26,2.18-1.26,3.89v11.16H152.61z"/>
			<path class="st0" d="M174.96,170.32v-3.13h2.34c0.65,0,1.13-0.1,1.44-0.29c0.31-0.19,0.55-0.52,0.72-0.97l0.61-1.58h-1.19
				l-6.91-18.58h4.03l5.26,15.05l5-15.05h4.07l-7.63,21.38c-0.38,1.1-0.95,1.91-1.71,2.41c-0.76,0.5-1.81,0.76-3.15,0.76H174.96z"/>
			<path class="st0" d="M200.59,165.35c-1.63,0-3.05-0.41-4.27-1.22c-1.21-0.82-2.14-1.97-2.77-3.47c-0.64-1.5-0.95-3.27-0.95-5.31
				c0-2.04,0.32-3.81,0.97-5.31c0.65-1.5,1.57-2.66,2.77-3.47s2.62-1.22,4.25-1.22c1.32,0,2.5,0.28,3.53,0.83
				c1.03,0.55,1.81,1.32,2.34,2.3v-9.11h3.82v25.56h-3.56l-0.11-2.88c-0.53,1.03-1.33,1.84-2.39,2.43
				C203.14,165.05,201.94,165.35,200.59,165.35z M201.6,162.04c1.03,0,1.91-0.26,2.63-0.79c0.72-0.53,1.27-1.3,1.66-2.3
				c0.38-1.01,0.58-2.21,0.58-3.6c0-1.44-0.19-2.66-0.58-3.65c-0.38-1-0.94-1.75-1.66-2.27c-0.72-0.52-1.6-0.77-2.63-0.77
				c-1.54,0-2.76,0.59-3.67,1.78c-0.91,1.19-1.37,2.83-1.37,4.91c0,2.06,0.46,3.7,1.37,4.9
				C198.84,161.44,200.07,162.04,201.6,162.04z"/>
			<path class="st0" d="M223.56,165.35c-1.82,0-3.42-0.41-4.79-1.22s-2.42-1.98-3.17-3.49c-0.74-1.51-1.12-3.28-1.12-5.29
				c0-2.04,0.37-3.8,1.12-5.29c0.74-1.49,1.8-2.65,3.17-3.47c1.37-0.83,2.96-1.24,4.79-1.24c1.82,0,3.42,0.41,4.79,1.24
				c1.37,0.83,2.42,1.99,3.17,3.47c0.74,1.49,1.12,3.25,1.12,5.29c0,2.02-0.37,3.78-1.12,5.29c-0.74,1.51-1.8,2.68-3.17,3.49
				S225.38,165.35,223.56,165.35z M223.56,162.04c1.63,0,2.89-0.59,3.78-1.78c0.89-1.19,1.33-2.83,1.33-4.91
				c0-2.09-0.44-3.73-1.33-4.91c-0.89-1.19-2.15-1.78-3.78-1.78c-1.61,0-2.86,0.59-3.76,1.78c-0.9,1.19-1.35,2.83-1.35,4.91
				c0,2.09,0.45,3.73,1.35,4.91C220.7,161.44,221.95,162.04,223.56,162.04z"/>
			<path class="st0" d="M244.73,165.35c-1.82,0-3.42-0.41-4.79-1.22s-2.42-1.98-3.17-3.49c-0.74-1.51-1.12-3.28-1.12-5.29
				c0-2.02,0.37-3.77,1.12-5.27c0.74-1.5,1.8-2.66,3.17-3.49c1.37-0.83,2.96-1.24,4.79-1.24c1.56,0,2.95,0.27,4.16,0.81
				s2.2,1.33,2.95,2.36c0.76,1.03,1.24,2.29,1.46,3.78l-4,0.22c-0.19-1.25-0.7-2.2-1.51-2.86c-0.82-0.66-1.84-0.99-3.06-0.99
				c-1.61,0-2.86,0.59-3.76,1.78c-0.9,1.19-1.35,2.83-1.35,4.91c0,2.09,0.45,3.73,1.35,4.91c0.9,1.19,2.15,1.78,3.76,1.78
				c1.22,0,2.24-0.34,3.06-1.03c0.82-0.68,1.32-1.72,1.51-3.11l4,0.22c-0.22,1.46-0.7,2.74-1.46,3.82
				c-0.76,1.08-1.74,1.92-2.95,2.52S246.29,165.35,244.73,165.35z"/>
			<path class="st0" d="M257.11,164.92v-25.56h3.82v15.88l8.6-9.47h4.82l-7.49,8.06l7.78,11.09h-4.39l-5.94-8.71l-3.38,3.6v5.11
				H257.11z"/>
		</g>
	</g>
</g>
</svg>
